<?xml version="1.0" encoding="utf-8"?>
<!-- Generator: Adobe Illustrator 21.0.2, SVG Export Plug-In . SVG Version: 6.00 Build 0)  -->
<svg version="1.1" id="Layer_1" xmlns="http://www.w3.org/2000/svg" xmlns:xlink="http://www.w3.org/1999/xlink" x="0px" y="0px"
	 viewBox="0 0 29 30.3" style="enable-background:new 0 0 29 30.3;" xml:space="preserve">
<style type="text/css">
	.st0{fill:#FF0000;}
</style>
<path class="st0" d="M14.4,1.3c-7.7,0-14,6.3-14,14c0,7.7,6.3,14,14,14c7.7,0,14-6.3,14-14C28.4,7.6,22.1,1.3,14.4,1.3z M14.4,5.6
	c1.9,0,3.8,0.6,5.3,1.6L6.3,20.6c-1-1.5-1.6-3.3-1.6-5.3C4.7,10,9,5.6,14.4,5.6z M14.4,25c-1.8,0-3.6-0.5-5-1.4l13.3-13.3
	c0.9,1.5,1.4,3.2,1.4,5C24.1,20.7,19.7,25,14.4,25z"/>
</svg>
